<svg width="24" height="24" viewBox="0 0 24 24" fill="none" xmlns="http://www.w3.org/2000/svg">
  <rect width="24" height="24" rx="3" fill="#D900D9"/>
  <g transform="scale(0.02) translate(200 200)">
    <path fill="white" d="M95.6,630.1c-12.7-11-22.7-25.3-28.7-41.1-6.9-18-6.9-35.2-6.9-66.5v-245c0-31.3,0-48.5,6.9-66.5,6.1-15.8,16-30,28.7-41.1,14.5-12.6,30.5-18.3,59.7-28.7l197.2-70.5c14.6-5.2,23.4-8.4,33.7-9.8,9.2-1.3,18.4-1.3,27.6,0,10.3,1.4,19.1,4.6,33.7,9.8l197.2,70.5c29.1,10.4,45.2,16.1,59.7,28.7,12.7,11.1,22.7,25.3,28.7,41.1,6.9,18,6.9,35.2,6.9,66.5v245c0,31.3,0,48.5-6.9,66.5-6.1,15.8-16,30-28.7,41.1-14.5,12.6-30.5,18.3-59.7,28.7l-197.2,70.5c-14.6,5.2-23.4,8.4-33.7,9.8-4.6.6-9.2.9-13.8.9-4.6,0-9.2-.3-13.8-.9-10.3-1.4-19.1-4.6-33.7-9.8l-197.2-70.5s-45.2-16.1-59.7-28.7ZM128,276.6v245.9c0,22.2,0,35.7,2.3,41.6,2,5.3,5.3,10,9.6,13.7,4.8,4.2,17.3,8.7,38,16h0s188.1,67.2,188.1,67.2v-297.8l-238-86.7ZM434,363.3v297.8l188.1-67.2c20.7-7.4,33.2-11.9,38-16.1,4.2-3.7,7.6-8.4,9.6-13.7,2.3-6,2.3-19.4,2.3-41.7v-245.5l-238,86.4ZM156.6,213.9l243.4,88.7,243.8-88.5c-5.8-2.3-13.1-4.9-21.8-8l-197.2-70.5c-10.5-3.8-16.9-6-20.3-6.5-3.1-.4-6.1-.4-9.2,0-3.4.5-9.8,2.7-20.3,6.5l-197.2,70.5c-8.5,3-15.6,5.6-21.3,7.8Z"/>
  </g>
</svg>